<svg xmlns="http://www.w3.org/2000/svg" width="22" height="23" viewBox="0 0 22 23" fill="currentColor">
  <g clip-path="url(#clip0_274_3500)">
    <path d="M15.65 0.75H11.9423V15.7355C11.9423 17.521 10.5163 18.9877 8.74174 18.9877C6.96714 18.9877 5.54113 17.521 5.54113 15.7355C5.54113 13.9819 6.93545 12.5471 8.64669 12.4833V8.72103C4.87565 8.78477 1.8335 11.8775 1.8335 15.7355C1.8335 19.6254 4.93903 22.75 8.77344 22.75C12.6078 22.75 15.7133 19.5935 15.7133 15.7355V8.05143C17.1077 9.07174 18.8189 9.67754 20.6252 9.70944V5.9471C17.8365 5.85145 15.65 3.55579 15.65 0.75Z" fill="white"></path>
  </g>
  <defs>
    <clipPath id="clip0_274_3500">
      <rect width="22" height="22" fill="white" transform="translate(0 0.75)"></rect>
    </clipPath>
  </defs>
</svg>